<?xml version="1.0" encoding="UTF-8"?>
<svg width="50px" height="51px" viewBox="0 0 50 51" version="1.1" xmlns="http://www.w3.org/2000/svg" xmlns:xlink="http://www.w3.org/1999/xlink">
    <title></title>
    <g id="Page-1" stroke="none" stroke-width="1" fill="none" fill-rule="evenodd">
        <g id="Tempalte8" transform="translate(-1139.000000, -2814.000000)" fill="#07D0BD" fill-rule="nonzero">
            <g id="Group-10" transform="translate(0.000000, 1938.000000)">
                <path d="M1186.54297,900.853516 C1187.10938,900.815755 1187.58138,900.589193 1187.95898,900.173828 C1188.33659,899.758464 1188.50651,899.267578 1188.46875,898.701172 C1188.43099,898.134766 1188.20443,897.66276 1187.78906,897.285156 L1166.71875,877.007812 C1165.96354,876.328125 1165.05729,875.988281 1164,875.988281 C1162.94271,875.988281 1162.03646,876.328125 1161.28125,877.007812 L1140.21094,897.285156 C1139.79557,897.66276 1139.56901,898.134766 1139.53125,898.701172 C1139.49349,899.267578 1139.66341,899.758464 1140.04102,900.173828 C1140.41862,900.589193 1140.89062,900.815755 1141.45703,900.853516 C1142.02344,900.891276 1142.51432,900.721354 1142.92969,900.34375 L1164,880.066406 L1185.07031,900.34375 C1185.48568,900.721354 1185.97656,900.891276 1186.54297,900.853516 Z M1180.14258,926.625 C1181.27539,926.625 1182.23828,926.228516 1183.03125,925.435547 C1183.82422,924.642578 1184.2207,923.679688 1184.2207,922.546875 L1184.2207,906.857422 C1184.2207,906.291016 1184.02246,905.80957 1183.62598,905.413086 C1183.22949,905.016602 1182.74805,904.818359 1182.18164,904.818359 C1181.61523,904.818359 1181.13379,905.016602 1180.7373,905.413086 C1180.34082,905.80957 1180.14258,906.291016 1180.14258,906.857422 L1180.14258,922.546875 L1172.04297,922.546875 L1172.04297,908.953125 C1172.04297,907.820312 1171.64648,906.857422 1170.85352,906.064453 C1170.06055,905.271484 1169.09766,904.875 1167.96484,904.875 L1160.03516,904.875 C1158.90234,904.875 1157.93945,905.271484 1157.14648,906.064453 C1156.35352,906.857422 1155.95703,907.820312 1155.95703,908.953125 L1155.95703,922.546875 L1147.85742,922.546875 L1147.85742,906.857422 C1147.85742,906.291016 1147.65918,905.80957 1147.2627,905.413086 C1146.86621,905.016602 1146.38477,904.818359 1145.81836,904.818359 C1145.25195,904.818359 1144.77051,905.016602 1144.37402,905.413086 C1143.97754,905.80957 1143.7793,906.291016 1143.7793,906.857422 L1143.7793,922.546875 C1143.7793,923.679688 1144.17578,924.642578 1144.96875,925.435547 C1145.76172,926.228516 1146.72461,926.625 1147.85742,926.625 L1180.14258,926.625 Z M1167.96484,922.546875 L1160.03516,922.546875 L1160.03516,908.953125 L1167.96484,908.953125 L1167.96484,922.546875 Z" id=""></path>
            </g>
        </g>
    </g>
</svg>