<?xml version="1.0" encoding="UTF-8"?>
<svg width="53px" height="53px" viewBox="0 0 53 53" version="1.1" xmlns="http://www.w3.org/2000/svg" xmlns:xlink="http://www.w3.org/1999/xlink">
    <title>ic:outline-medical-services</title>
    <g id="Page-1" stroke="none" stroke-width="1" fill="none" fill-rule="evenodd">
        <g id="Tempalte8" transform="translate(-248.000000, -2815.000000)" fill="#07D0BD" fill-rule="nonzero">
            <g id="Group-10" transform="translate(0.000000, 1938.000000)">
                <g id="ic:outline-medical-services" transform="translate(248.000000, 877.000000)">
                    <path d="M47.7,10.6 L37.1,10.6 L37.1,5.3 C37.1,2.385 34.715,0 31.8,0 L21.2,0 C18.285,0 15.9,2.385 15.9,5.3 L15.9,10.6 L5.3,10.6 C2.385,10.6 0,12.985 0,15.9 L0,47.7 C0,50.615 2.385,53 5.3,53 L47.7,53 C50.615,53 53,50.615 53,47.7 L53,15.9 C53,12.985 50.615,10.6 47.7,10.6 Z M21.2,5.3 L31.8,5.3 L31.8,10.6 L21.2,10.6 L21.2,5.3 Z M47.7,47.7 L5.3,47.7 L5.3,15.9 L47.7,15.9 L47.7,47.7 Z" id="Shape"></path>
                    <polygon id="Path" points="29.125 21 23.875 21 23.875 28.875 16 28.875 16 34.125 23.875 34.125 23.875 42 29.125 42 29.125 34.125 37 34.125 37 28.875 29.125 28.875"></polygon>
                </g>
            </g>
        </g>
    </g>
</svg>