<?xml version="1.0" encoding="UTF-8"?>
<svg width="79px" height="46px" viewBox="0 0 79 46" version="1.1" xmlns="http://www.w3.org/2000/svg" xmlns:xlink="http://www.w3.org/1999/xlink">
    <title>icons8:student</title>
    <g id="Page-1" stroke="none" stroke-width="1" fill="none" fill-rule="evenodd">
        <g id="Tempalte8" transform="translate(-680.000000, -2821.000000)" fill="#07D0BD" fill-rule="nonzero">
            <g id="Group-10" transform="translate(0.000000, 1938.000000)">
                <g id="icons8:student" transform="translate(680.000000, 883.000000)">
                    <path d="M39.5,0 L38.7102523,0.239846323 L7.17080805,10.8132821 L0,13.1789243 L4.17582242,14.5170143 L4.17582242,36.6081229 C2.66949856,37.4841932 1.65266688,39.0823271 1.65266688,40.9506037 C1.65266688,43.7393083 3.91197731,46 6.69897796,46 C9.48597862,46 11.745289,43.7393083 11.745289,40.9506037 C11.745289,39.0823271 10.7284574,37.4841932 9.2221335,36.6081229 L9.2221335,16.259056 L14.2684446,17.9127333 L14.2684446,30.8518112 C14.2684446,32.9220637 15.5300224,34.6388584 17.0287767,35.8254665 C18.5275311,37.0045005 20.3896199,37.8376509 22.6251357,38.5849616 C27.1012137,40.0745335 33.0003513,40.9506037 39.5,40.9506037 C45.9996487,40.9506037 51.8987863,40.0770582 56.3748643,38.5824369 C58.6103801,37.8376509 60.4724689,37.0045005 61.9712233,35.8229418 C63.4699776,34.6388584 64.7315554,32.9220637 64.7315554,30.8518112 L64.7315554,17.9127333 L71.829192,15.5445664 L79,13.1789243 L71.8266688,10.8107574 L40.2872245,0.239846323 L39.5,0 Z M39.5,5.28924259 L63.1545832,13.1789243 L39.5,21.0686059 L15.8454168,13.1789243 L39.5,5.28924259 Z M19.3147439,19.6497256 L38.7127755,26.1180022 L39.5,26.3553238 L40.2897477,26.1154775 L59.6852504,19.6472009 L59.6852504,30.8518112 C59.6852504,30.8770582 59.695337,31.1699232 58.8954966,31.798573 C58.0981795,32.4297475 56.6675503,33.2250274 54.7953689,33.8511526 C51.0560524,35.0958288 45.5429575,35.9012075 39.5,35.9012075 C33.4570425,35.9012075 27.9439476,35.0983535 24.202108,33.8486279 C22.3349729,33.2250274 20.9018205,32.4272228 20.1045034,31.798573 C19.3021399,31.1673985 19.3147439,30.8770582 19.3147439,30.8518112 L19.3147439,19.6472009 L19.3147439,19.6497256 Z" id="Shape"></path>
                </g>
            </g>
        </g>
    </g>
</svg>