<?xml version="1.0" encoding="UTF-8"?>
<svg width="64px" height="64px" viewBox="0 0 64 64" version="1.1" xmlns="http://www.w3.org/2000/svg" xmlns:xlink="http://www.w3.org/1999/xlink">
    <title>ri:refund-2-line</title>
    <g id="Page-1" stroke="none" stroke-width="1" fill="none" fill-rule="evenodd">
        <g id="Tempalte8" transform="translate(-1132.000000, -2289.000000)" fill="#07D0BD" fill-rule="nonzero">
            <g id="Group-10" transform="translate(0.000000, 1938.000000)">
                <g id="ri:refund-2-line" transform="translate(1132.000000, 351.000000)">
                    <path d="M11.7549024,7.22300129 C24.322842,-3.07783476 42.8963881,-2.36103225 54.629238,9.37340881 C67.1235873,21.8694525 67.1235873,42.1319235 54.629238,54.6279672 C42.1348887,67.1240109 21.8751653,67.1240109 9.38081603,54.6279672 C1.58633224,46.8430449 -1.65242384,35.5935215 0.809148481,24.855063 L1.05551593,23.8534595 L7.2434984,25.4854652 C4.07655552,37.5236313 10.0266959,50.0953311 21.343503,55.2765308 C32.66031,60.4577306 46.0632765,56.7465082 53.1044153,46.4820742 C60.1455542,36.2176401 58.7837856,22.3754404 49.8774423,13.6803141 C40.9710989,4.98518768 27.1019445,3.95767106 17.0118079,11.2454154 L16.3047013,11.7766172 L19.5586714,15.0310286 L4.85341417,18.4230405 L8.2449661,3.71578901 L11.7517028,7.22300129 L11.7549024,7.22300129 Z M35.2046043,12.8006208 L35.2046043,19.2006432 L43.2035475,19.2006432 L43.2035475,25.6006656 L25.6058725,25.6006656 C24.7772169,25.5991399 24.0845555,26.2307211 24.0096825,27.0561005 C23.9348094,27.8814799 24.5025106,28.6274239 25.3179105,28.7750767 L25.6058725,28.8006768 L38.4041816,28.8006768 C42.821876,28.8006768 46.4031248,32.3824113 46.4031248,36.8007048 C46.4031248,41.2189983 42.821876,44.8007328 38.4041816,44.8007328 L35.2046043,44.8007328 L35.2046043,51.2007552 L28.8054497,51.2007552 L28.8054497,44.8007328 L20.8065065,44.8007328 L20.8065065,38.4007104 L38.4041816,38.4007104 C39.2328372,38.4022361 39.9254985,37.770655 40.0003716,36.9452756 C40.0752447,36.1198962 39.5075434,35.3739521 38.6921436,35.2262993 L38.4041816,35.2006992 L25.6058725,35.2006992 C21.1881781,35.2006992 17.6069292,31.6189647 17.6069292,27.2006712 C17.6069292,22.7823777 21.1881781,19.2006432 25.6058725,19.2006432 L28.8054497,19.2006432 L28.8054497,12.8006208 L35.2046043,12.8006208 Z" id="Shape"></path>
                </g>
            </g>
        </g>
    </g>
</svg>