<?xml version="1.0" encoding="UTF-8"?>
<svg width="71px" height="71px" viewBox="0 0 71 71" version="1.1" xmlns="http://www.w3.org/2000/svg" xmlns:xlink="http://www.w3.org/1999/xlink">
    <title>Group 16</title>
    <g id="Page-1" stroke="none" stroke-width="1" fill="none" fill-rule="evenodd">
        <g id="Tempalte8" transform="translate(-895.000000, -4081.000000)">
            <g id="Group-5" transform="translate(38.000000, 4058.000000)">
                <g id="Group-16" transform="translate(857.000000, 23.000000)">
                    <circle id="Oval" fill="#07D0BD" cx="35.5" cy="35.5" r="35.5"></circle>
                    <path d="M46.8097489,55 C48.866113,55 50.707633,54.416852 52.5184611,53.434708 C53.8996011,52.6674079 55.6183532,51.6852639 56.2628852,50.1813559 C56.7232652,49.1685198 57.2143372,47.0200798 57.2143372,45.9151677 C57.2143372,45.7003237 57.2143372,45.4854797 57.1222612,45.2706357 C56.9074172,44.6261037 55.4035092,43.9508797 54.7896692,43.6439597 C53.0402251,42.6618156 51.2600891,41.7103636 49.541337,40.6975276 C48.743345,40.2064556 47.761201,39.2856956 46.8097489,39.2856956 C45.9020098,39.2856956 44.7922501,40.5916134 43.700856,41.9371045 L43.2928745,42.4410454 C42.2772253,43.6931683 41.3019299,44.8409477 40.5485808,44.8409477 C39.7198967,44.8409477 38.6456767,44.0736477 37.9090687,43.6439597 C32.3231245,40.5440676 28.4559324,36.6768755 25.3560403,31.0909313 C24.9263523,30.3543233 24.1590523,29.2801033 24.1590523,28.4514192 C24.1590523,27.6980701 25.3068317,26.7227747 26.5589546,25.7071255 L27.0628955,25.299144 C28.4083866,24.2077499 29.7143044,23.0979902 29.7143044,22.1902511 C29.7143044,21.238799 28.7935444,20.256655 28.3024724,19.458663 C27.2896364,17.7399109 26.3381844,15.9597749 25.3560403,14.2103308 C25.0491203,13.5964908 24.3738963,12.0925828 23.7293643,11.8777388 C23.5145203,11.7856628 23.2996763,11.7856628 23.0848323,11.7856628 C21.9799202,11.7856628 19.8314802,12.2767348 18.8186441,12.7371148 C17.3147361,13.3816468 16.3325921,15.1003989 15.565292,16.4815389 C14.583148,18.292367 14,20.133887 14,22.1902511 C14,25.0446071 15.166296,27.6227352 16.1177481,30.2315553 C16.7929721,32.1037673 17.6216561,33.9145954 18.6651841,35.6026554 C21.8878442,40.8202956 28.1797044,47.1121558 33.3973446,50.3348159 C35.0854046,51.3783439 36.8962327,52.2070279 38.7684447,52.8822519 C41.3772648,53.833704 43.9553929,55 46.8097489,55 Z" id="" fill="#FFFFFF" fill-rule="nonzero"></path>
                </g>
            </g>
        </g>
    </g>
</svg>