<?xml version="1.0" encoding="UTF-8"?>
<svg width="61px" height="62px" viewBox="0 0 61 62" version="1.1" xmlns="http://www.w3.org/2000/svg" xmlns:xlink="http://www.w3.org/1999/xlink">
    <title>healthicons:health-outline</title>
    <g id="Page-1" stroke="none" stroke-width="1" fill="none" fill-rule="evenodd">
        <g id="Tempalte8" transform="translate(-689.000000, -2298.000000)" fill="#07D0BD">
            <g id="Group-10" transform="translate(0.000000, 1938.000000)">
                <g id="healthicons:health-outline" transform="translate(689.000000, 360.000000)">
                    <path d="M13.1088108,51.9308649 C17.2108649,55.6357838 21.705027,58.6955676 26.778973,61.1085405 C29.4969189,62.3988108 32.7209189,62.2815135 35.3265946,60.7951892 C39.7218919,58.2883784 43.5474595,55.2704865 47.2456757,51.9308649 C55.0844865,44.8494595 59.6557297,35.1054054 59.9556757,24.8284865 L60.3058919,12.8457297 C60.3461081,11.4515676 60.3075676,8.37837838 60.3075676,8.37837838 C58.5531351,8.08848649 56.7802703,7.87567568 55.0090811,7.66454054 C49.5296216,7.00767568 44.0736216,6.35583784 39.2862162,3.42843243 L35.8728649,1.34221622 C32.9182563,-0.447315595 29.2141221,-0.447315595 26.2595135,1.34221622 L22.9902703,3.3412973 C17.5158378,6.68594595 10.844973,7.31935135 4.38859459,7.93264865 C2.92572973,8.07172973 1.47291892,8.21081081 0.0485945946,8.37837838 C0.0485945946,8.37837838 0.00837837838,11.47 0.0485945946,12.8842703 L0.398810811,24.8284865 C0.698756757,35.1054054 5.26832432,44.8494595 13.1088108,51.9308649 Z M3.38318919,11.3962703 C3.38318919,11.9324865 3.38821622,12.4268108 3.39994595,12.7870811 L3.74848649,24.7312973 C4.02162162,34.0648108 8.17227027,42.9559459 15.3542162,49.4441622 C19.2283784,52.9412973 23.4527568,55.8150811 28.2183784,58.0805946 C29.9592823,58.9020383 31.990304,58.8289665 33.6676757,57.8845405 C37.7814595,55.5385946 41.4076216,52.6882703 45.0002703,49.4441622 C52.1822162,42.9559459 56.3328649,34.0664865 56.606,24.7312973 L56.9562162,12.7468649 C56.9662703,12.3731892 56.972973,11.8453514 56.972973,11.2823243 C56.1887568,11.1817838 55.3911351,11.0862703 54.5767568,10.9874054 L54.4862703,10.9773514 C52.624807,10.7685746 50.7687218,10.5143546 48.9196757,10.2149189 C45.1594595,9.57816216 41.224973,8.54091892 37.5384865,6.28881081 L34.1251351,4.20091892 C32.2434448,3.06706293 29.8889336,3.06706293 28.0072432,4.20091892 L24.738,6.2 C20.8504324,8.57443243 16.5607027,9.70048649 12.4268108,10.3657297 C9.86302703,10.7779459 7.10151351,11.041027 4.51594595,11.289027 L3.38318919,11.3979459 L3.38318919,11.3962703 Z" id="Shape"></path>
                    <polygon id="Path" points="26.8091351 45.2432432 26.8091351 15.0810811 33.5118378 15.0810811 33.5118378 45.2432432"></polygon>
                    <polygon id="Path" points="45.2432432 33.5135135 15.0810811 33.5135135 15.0810811 26.8108108 45.2432432 26.8108108"></polygon>
                </g>
            </g>
        </g>
    </g>
</svg>