<?xml version="1.0" encoding="UTF-8"?>
<svg width="69px" height="41px" viewBox="0 0 69 41" version="1.1" xmlns="http://www.w3.org/2000/svg" xmlns:xlink="http://www.w3.org/1999/xlink">
    <title>Group Copy 2</title>
    <g id="Page-1" stroke="none" stroke-width="1" fill="none" fill-rule="evenodd">
        <g id="Dashboard" transform="translate(-18.000000, -30.000000)" fill="#FFFFFF">
            <g id="Group-Copy-2" transform="translate(18.000000, 30.000000)">
                <path d="M34.9258649,39 C37.199341,39 39.2668863,38.6605915 41.1285008,37.9817744 C42.9901153,37.3029574 44.5799012,36.3574622 45.8978583,35.1452889 C47.2158155,33.9331155 48.2289951,32.4785076 48.937397,30.7814649 C49.645799,29.0844223 50,27.2015131 50,25.1327373 L50,13.25 L41.5485997,8.75 L41.5485997,24.4539202 C41.5485997,25.3913343 41.4332784,26.2802613 41.2026359,27.1207015 C40.9719934,27.9611417 40.5930807,28.7126891 40.0658979,29.3753439 C39.538715,30.0379986 38.8550247,30.5632737 38.014827,30.9511692 C37.1746293,31.3390646 36.1614498,31.5330124 34.9752883,31.5330124 C33.7891269,31.5330124 32.7759473,31.3390646 31.9357496,30.9511692 C31.0955519,30.5632737 30.4200988,30.0379986 29.9093904,29.3753439 C29.398682,28.7126891 29.0197694,27.9611417 28.7726524,27.1207015 C28.5255354,26.2802613 28.4019769,25.3913343 28.4019769,24.4539202 L28.4019769,11.375 L20,8 L20,25.1327373 C20,27.2015131 20.3459638,29.0844223 21.0378913,30.7814649 C21.7298188,32.4785076 22.7182867,33.9331155 24.0032949,35.1452889 C25.2883031,36.3574622 26.8533773,37.3029574 28.6985173,37.9817744 C30.5436573,38.6605915 32.6194399,39 34.9258649,39 Z" id="U" fill-rule="nonzero"></path>
                <path d="M17.0680396,27 C8.98969497,18.1062448 7.35036275,11.6479125 12.1500429,7.6250031 C15.9754472,4.32779241 23.5920995,4.74670505 35,8.88174099 C28.7950396,5.09689496 21.5011969,3.51286102 13.1184716,4.12963918 C7.77943705,4.90403678 5.46298536,8.63056604 6.10416863,13.0729224 C7.22101424,17.4140443 10.8756379,22.0564035 17.0680396,27 Z" id="Path-16"></path>
                <path d="M50,38.6275888 C57.8063077,38.0564106 61.0123011,34.7218526 59.6179802,28.6239149 C59.0288833,25.3075825 56.668994,21.7662776 52.5383122,18 C57.4555694,21.2194273 60.7906365,24.8943326 62.5435133,29.024716 C63.3896223,31.8393553 63.3896223,35.4317978 59.6179802,37.7708215 C57.0475013,39.0413268 53.8415079,39.326916 50,38.6275888 Z" id="Path-17"></path>
                <path d="M12.3841172,24.0045098 C3.86020407,15.6337398 1.75832693,9.12880801 6.07848584,4.48971449 C7.79659396,2.41223306 13.0329714,0.947172006 22.0756585,2.41223306 C31.1183457,3.87729412 45.3245149,9.80285172 54.0780627,16.7420579 C62.8316105,23.6812641 65.251199,29.9041143 64.5796338,34.5173777 C63.7898731,38.2503662 59.948357,40.2915214 53.0550857,40.6408434 C59.4986118,41.4414769 63.8352139,40.9035287 66.0648919,39.0269988 C69.409409,36.212204 69.7797467,31.9045973 67.7640741,28.4449194 C56.7977799,11.9636046 31.3256762,3.61481068 25.2532611,1.82822585 C14.7868556,-0.762906401 2.61931429,-1.35749167 0.233181899,5.17409026 C-1.05516516,10.4507373 2.99514662,16.7275438 12.3841172,24.0045098 Z" id="Path-18"></path>
            </g>
        </g>
    </g>
</svg>