<?xml version="1.0" encoding="UTF-8"?>
<svg width="380px" height="63px" viewBox="0 0 380 63" version="1.1" xmlns="http://www.w3.org/2000/svg" xmlns:xlink="http://www.w3.org/1999/xlink">
    <title>Group Copy</title>
    <g id="Page-1" stroke="none" stroke-width="1" fill="none" fill-rule="evenodd">
        <g id="Tempalte8" transform="translate(-33.000000, -81.000000)">
            <g id="Group-Copy" transform="translate(33.000000, 81.000000)">
                <g id="Umpire-Tax" transform="translate(120.537636, 9.689214)" fill-rule="nonzero">
                    <path d="M14.5108792,29.811053 C15.5902565,29.811053 16.7202297,29.6525195 17.9007986,29.3354524 C19.0813676,29.0183853 20.2045947,28.4955619 21.2704798,27.7669822 C22.3498571,27.011418 23.2201051,26.0467245 23.8812237,24.8729017 C24.5423424,23.6990788 24.8729017,22.3161266 24.8729017,20.724045 L24.8729017,20.724045 L24.8729017,8.23699835 C24.8729017,6.83380781 24.9606011,5.64649273 25.1359999,4.67505312 C25.3113987,3.70361351 25.6284658,3.06273321 26.0872012,2.75241223 C26.5459365,2.45558346 27.1395941,2.23296188 27.8681738,2.0845475 C28.5967535,1.93613311 29.1499344,1.85517981 29.5277165,1.84168759 L29.5277165,1.84168759 L29.5277165,0.404766504 L17.7894878,0.404766504 L17.7894878,1.84168759 C18.2212388,1.86867203 18.8452538,1.97660976 19.6615329,2.1655008 C20.477812,2.35439183 21.1220654,2.61749006 21.594293,2.95479548 C22.0125517,3.25162425 22.3296188,3.87563927 22.5454943,4.82684056 C22.7613697,5.77804184 22.8693075,7.00246052 22.8693075,8.50009658 L22.8693075,8.50009658 L22.8693075,20.2788018 C22.8693075,21.0883349 22.7546236,21.8911218 22.5252559,22.6871625 C22.2958883,23.4832033 21.904614,24.2455136 21.3514331,24.9740933 C20.7712678,25.7431496 19.9786,26.3637916 18.9734299,26.8360192 C17.9682597,27.3082468 16.7236027,27.5443606 15.2394589,27.5443606 C13.6608695,27.5443606 12.4195856,27.3082468 11.515607,26.8360192 C10.6116285,26.3637916 9.89654102,25.7566419 9.37034457,25.0145699 C8.87113254,24.2859902 8.53720018,23.5000686 8.36854747,22.6568051 C8.19989476,21.8135415 8.1155684,21.0073816 8.1155684,20.2383252 L8.1155684,20.2383252 L8.1155684,4.37147824 C8.1155684,3.92623509 8.19314865,3.51472248 8.34830914,3.13694041 C8.50346964,2.75915833 8.81041757,2.489314 9.26915294,2.3274074 C9.53899728,2.23296188 9.96062905,2.13177025 10.5340483,2.02383252 C11.1074675,1.91589479 11.5830681,1.85517981 11.9608502,1.84168759 L11.9608502,1.84168759 L11.9608502,0.404766504 L-6.25277607e-13,0.404766504 L-6.25277607e-13,1.84168759 C0.33730542,1.86867203 0.769056357,1.93950616 1.29525281,2.05419001 C1.82144927,2.16887385 2.25320021,2.32066129 2.59050562,2.50955232 C3.06273321,2.77939666 3.37642725,3.07285238 3.53158775,3.38991947 C3.68674824,3.70698656 3.76432849,4.10163391 3.76432849,4.57386149 L3.76432849,4.57386149 L3.76432849,21.5538163 C3.76432849,22.6331937 3.99369617,23.6687213 4.45243154,24.6603993 C4.91116691,25.6520772 5.59252386,26.5324443 6.49650239,27.3015007 C7.41397313,28.070557 8.54731934,28.6810799 9.89654102,29.1330691 C11.2457627,29.5850584 12.7838754,29.811053 14.5108792,29.811053 Z M42.4195296,29.12295 L42.4195296,27.6860289 C42.1361931,27.6725367 41.5290433,27.5376145 40.5980803,27.2812624 C39.6671174,27.0249102 39.0532215,26.7550659 38.7563927,26.4717294 C38.3246418,26.0939473 38.0042017,25.4733053 37.7950723,24.6098034 C37.5859429,23.7463016 37.4813783,22.4847793 37.4813783,20.8252366 L37.4813783,20.8252366 L37.4813783,3.68337519 L37.7444765,3.68337519 L47.0743444,28.6574685 L48.0862607,28.6574685 L57.8816101,4.18933332 L58.1851849,4.18933332 L58.1851849,25.0752849 C58.1851849,25.5744969 58.0873664,25.9893826 57.8917292,26.3199419 C57.6960921,26.6505012 57.3891441,26.9439569 56.9708854,27.2003091 C56.7010411,27.3487234 56.2052021,27.4634073 55.4833685,27.5443606 C54.7615349,27.6253139 54.1712504,27.6725367 53.7125151,27.6860289 L53.7125151,27.6860289 L53.7125151,29.12295 L66.401945,29.12295 L66.401945,27.6860289 C66.0376551,27.6725367 65.5451892,27.6084486 64.9245472,27.4937648 C64.3039053,27.3790809 63.8721543,27.2542779 63.6292944,27.1193558 C63.170559,26.8764959 62.8602381,26.5931593 62.6983315,26.2693461 C62.5364249,25.9455329 62.4554716,25.5475125 62.4554716,25.0752849 L62.4554716,25.0752849 L62.4554716,4.37147824 C62.4554716,3.92623509 62.5364249,3.51472248 62.6983315,3.13694041 C62.8602381,2.75915833 63.170559,2.489314 63.6292944,2.3274074 C63.8991387,2.23296188 64.3275166,2.13177025 64.9144281,2.02383252 C65.5013395,1.91589479 65.9836862,1.85517981 66.3614683,1.84168759 L66.3614683,1.84168759 L66.3614683,0.404766504 L56.9911237,0.404766504 C56.9776315,0.647626406 56.879813,1.12997316 56.697668,1.85180676 C56.5155231,2.57364035 56.2962746,3.26511646 56.0399225,3.92623509 L56.0399225,3.92623509 L49.0172236,21.9383445 L40.8004636,0.404766504 L31.0051142,0.404766504 L31.0051142,1.84168759 C31.5987717,1.86867203 32.1991754,1.96986365 32.8063251,2.14526247 C33.4134749,2.32066129 33.9261791,2.59050563 34.3444379,2.95479548 C34.7222199,3.2921009 35.0123026,3.73059794 35.2146858,4.27028662 C35.4170691,4.80997529 35.5182607,5.50482445 35.5182607,6.35483411 L35.5182607,6.35483411 L35.5182607,21.0478582 C35.5182607,22.8827997 35.4305613,24.1915447 35.2551625,24.9740933 C35.0797637,25.7566419 34.7559505,26.3368072 34.2837229,26.7145893 C33.919433,27.011418 33.4033557,27.2340396 32.735491,27.382454 C32.0676263,27.5308684 31.430119,27.63206 30.8229693,27.6860289 L30.8229693,27.6860289 L30.8229693,29.12295 L42.4195296,29.12295 Z M82.5926051,29.12295 L82.5926051,27.6860289 C82.0799009,27.6725367 81.5166008,27.6253139 80.902705,27.5443606 C80.2888091,27.4634073 79.8604312,27.3757079 79.6175713,27.2812624 C79.1318515,27.0923713 78.8114114,26.8191539 78.6562509,26.4616102 C78.5010904,26.1040664 78.4235101,25.6891808 78.4235101,25.2169532 L78.4235101,25.2169532 L78.4235101,16.5144734 L81.6414038,16.5144734 C83.01761,16.5144734 84.3196089,16.3390745 85.5474006,15.9882769 C86.7751923,15.6374793 87.9017924,15.0842984 88.9272009,14.3287342 C89.9661016,13.5731701 90.7790077,12.6185958 91.3659191,11.4650112 C91.9528305,10.3114267 92.2462862,8.98581639 92.2462862,7.48818032 C92.2462862,5.34291785 91.4131419,3.62603326 89.7468531,2.33752656 C88.0805643,1.04901986 85.9116905,0.404766504 83.2402315,0.404766504 L83.2402315,0.404766504 L70.1257968,0.404766504 L70.1257968,1.84168759 C70.4900867,1.86867203 70.9252106,1.91926784 71.4311688,1.99347503 C71.9371269,2.06768222 72.4464581,2.19248523 72.9591623,2.36788405 C73.4583744,2.55677508 73.7754414,2.84011164 73.9103636,3.21789371 C74.0452858,3.59567578 74.1127469,4.02068061 74.1127469,4.49290819 L74.1127469,4.49290819 L74.1127469,25.2169532 C74.1127469,25.7431496 74.0216744,26.1749006 73.8395295,26.512206 C73.6573845,26.8495114 73.3639288,27.1058635 72.9591623,27.2812624 C72.7163024,27.3892001 72.2879245,27.4768995 71.6740287,27.5443606 C71.0601328,27.6118217 70.5912783,27.6590444 70.2674651,27.6860289 L70.2674651,27.6860289 L70.2674651,29.12295 L82.5926051,29.12295 Z M80.4878193,14.7537391 L78.4235101,14.7537391 L78.4235101,2.06430917 L81.277114,2.06430917 C82.4239524,2.06430917 83.3818998,2.23970799 84.1509562,2.59050563 C84.9200125,2.94130326 85.5406545,3.43376917 86.0128821,4.06790336 C86.4581252,4.6615609 86.7718193,5.35641007 86.9539642,6.15245086 C87.1361091,6.94849165 87.2271816,7.73104022 87.2271816,8.50009658 C87.2271816,9.05327747 87.1529744,9.6772925 87.00456,10.3721417 C86.8561456,11.0669908 86.5525708,11.7382286 86.0938354,12.385855 C85.6351,13.0604659 84.95037,13.6237659 84.0396454,14.0757552 C83.1289207,14.5277444 81.9449787,14.7537391 80.4878193,14.7537391 L80.4878193,14.7537391 Z M108.092895,29.12295 L108.092895,27.6860289 C107.647652,27.6725367 107.10459,27.6017025 106.46371,27.4735265 C105.822829,27.3453504 105.360721,27.2272935 105.077384,27.1193558 C104.605157,26.9169725 104.271224,26.6437551 104.075587,26.2997036 C103.87995,25.9556521 103.782132,25.5610047 103.782132,25.1157616 L103.782132,25.1157616 L103.782132,4.33100159 C103.782132,3.88575844 103.869831,3.48099193 104.04523,3.11670208 C104.220629,2.75241223 104.56468,2.489314 105.077384,2.3274074 C105.509135,2.19248523 106.015093,2.08117444 106.595259,1.99347503 C107.175424,1.90577562 107.674636,1.85517981 108.092895,1.84168759 L108.092895,1.84168759 L108.092895,0.404766504 L95.1606051,0.404766504 L95.1606051,1.84168759 C95.5518794,1.86867203 96.0544644,1.95299838 96.6683603,2.09466666 C97.2822562,2.23633493 97.7915873,2.38812237 98.1963538,2.55002897 C98.7495347,2.76590444 99.1003324,3.03237573 99.2487468,3.34944282 C99.3971611,3.66650991 99.4713683,4.06115726 99.4713683,4.53338484 L99.4713683,4.53338484 L99.4713683,25.3383831 C99.4713683,25.8780718 99.3701767,26.2997036 99.1677935,26.6032785 C98.9654102,26.9068533 98.641597,27.1463402 98.1963538,27.321739 C97.9130173,27.4296767 97.4272975,27.51063 96.7391944,27.5645989 C96.0510914,27.6185678 95.5248949,27.6590444 95.1606051,27.6860289 L95.1606051,27.6860289 L95.1606051,29.12295 L108.092895,29.12295 Z M123.838312,29.12295 L123.838312,27.6860289 C123.420053,27.6725367 122.907349,27.6253139 122.300199,27.5443606 C121.693049,27.4634073 121.268045,27.3757079 121.025185,27.2812624 C120.539465,27.0923713 120.222398,26.8191539 120.073983,26.4616102 C119.925569,26.1040664 119.851362,25.6891808 119.851362,25.2169532 L119.851362,25.2169532 L119.851362,16.1097069 L122.785919,16.1097069 C124.404985,18.1875082 125.905994,20.2045947 127.288946,22.1609661 C128.671899,24.1173375 130.22013,26.4379988 131.933642,29.12295 L131.933642,29.12295 L139.664682,29.12295 L139.664682,27.6860289 C139.313885,27.6725367 138.875387,27.6185678 138.349191,27.5241223 C137.822995,27.4296767 137.384498,27.2947546 137.0337,27.1193558 C136.561472,26.8764959 136.085872,26.5628018 135.606898,26.1782736 C135.127924,25.7937455 134.591609,25.1967149 133.997951,24.3871819 C132.635237,22.5522404 131.485026,20.9938893 130.547317,19.7121287 C129.609608,18.4303681 128.432412,16.8517788 127.015729,14.9763606 C128.041137,14.6795319 128.978846,14.3186151 129.828856,13.8936102 C130.678866,13.4686054 131.407445,12.9660203 132.014595,12.385855 C132.675714,11.765213 133.174926,11.0298872 133.512231,10.1798776 C133.849537,9.32986792 134.018189,8.3516822 134.018189,7.24532042 C134.018189,6.01752869 133.768583,4.96850884 133.269371,4.09826085 C132.770159,3.22801287 132.102295,2.52304454 131.265777,1.98335587 C130.402275,1.43017498 129.437582,1.02878153 128.371697,0.77917552 C127.305812,0.529569509 126.165719,0.404766504 124.95142,0.404766504 L124.95142,0.404766504 L111.695317,0.404766504 L111.695317,1.84168759 C112.073099,1.86867203 112.531834,1.93276006 113.071523,2.03395168 C113.611212,2.13514331 114.049709,2.2464541 114.387014,2.36788405 C114.886226,2.55677508 115.203293,2.83336553 115.338215,3.19765538 C115.473137,3.56194523 115.540599,3.98020396 115.540599,4.45243154 L115.540599,4.45243154 L115.540599,25.2169532 C115.540599,25.7431496 115.449526,26.1749006 115.267381,26.512206 C115.085236,26.8495114 114.791781,27.1058635 114.387014,27.2812624 C114.144154,27.3892001 113.715776,27.4768995 113.10188,27.5443606 C112.487984,27.6118217 112.01913,27.6590444 111.695317,27.6860289 L111.695317,27.6860289 L111.695317,29.12295 L123.838312,29.12295 Z M122.502582,14.3692109 L119.851362,14.3692109 L119.851362,2.04407084 L123.291877,2.04407084 C125.113326,2.04407084 126.523263,2.55340203 127.521687,3.5720644 C128.520111,4.59072677 129.019323,5.97030593 129.019323,7.7108019 C129.019323,9.76161885 128.398681,11.3840579 127.157397,12.5781191 C125.916113,13.7721803 124.364508,14.3692109 122.502582,14.3692109 L122.502582,14.3692109 Z M164.375677,29.12295 L164.922112,20.66333 L163.464953,20.66333 C163.276062,21.283972 162.840938,22.2520386 162.159581,23.5675297 C161.478224,24.8830208 160.827224,25.8645796 160.206582,26.512206 C159.977215,26.7550659 159.589313,26.94733 159.042879,27.0889983 C158.496444,27.2306666 157.966874,27.3284851 157.45417,27.382454 C156.954958,27.4364229 156.341062,27.4634073 155.612482,27.4634073 L155.612482,27.4634073 L153.851748,27.4634073 C152.731894,27.4634073 151.868392,27.4263037 151.261243,27.3520965 C150.654093,27.2778893 150.175119,27.1126097 149.824321,26.8562575 C149.473524,26.5999054 149.23741,26.2221233 149.11598,25.7229113 C148.99455,25.2236993 148.933835,24.5423424 148.933835,23.6788405 L148.933835,23.6788405 L148.933835,15.0573139 L152.171967,15.0573139 C153.048961,15.0573139 153.75393,15.1382672 154.286872,15.3001738 C154.819815,15.4620804 155.295415,15.806132 155.713674,16.3323284 C155.970026,16.6561416 156.216259,17.178965 156.452373,17.9007986 C156.688487,18.6226322 156.833528,19.3073622 156.887497,19.9549886 L156.887497,19.9549886 L158.405371,19.9549886 L158.405371,8.72271816 L156.887497,8.72271816 C156.820036,9.30288348 156.681741,9.9201524 156.472611,10.5745249 C156.263482,11.2288974 156.010503,11.7517208 155.713674,12.1429951 C155.349384,12.6017305 154.927752,12.9289167 154.448779,13.1245539 C153.969805,13.320191 153.210868,13.4180096 152.171967,13.4180096 L152.171967,13.4180096 L148.933835,13.4180096 L148.933835,2.00359419 L153.446982,2.00359419 C154.189054,2.00359419 154.850172,2.01708641 155.430337,2.04407084 C156.010503,2.07105528 156.509715,2.11153193 156.927974,2.1655008 C157.737507,2.27343853 158.590889,2.90419967 159.488122,4.0577842 C160.385354,5.21136874 160.968892,6.30086524 161.238737,7.32627372 L161.238737,7.32627372 L162.756611,7.32627372 L162.756611,0.404766504 L140.53493,0.404766504 L140.53493,1.84168759 C140.89922,1.86867203 141.388313,1.94962533 142.002209,2.0845475 C142.616105,2.21946966 143.105197,2.37463016 143.469487,2.55002897 C143.941715,2.76590444 144.252036,3.04586794 144.40045,3.38991947 C144.548865,3.733971 144.623072,4.12861834 144.623072,4.57386149 L144.623072,4.57386149 L144.623072,25.2169532 C144.623072,25.7161652 144.538745,26.1276778 144.370093,26.451491 C144.20144,26.7753042 143.901238,27.0384025 143.469487,27.2407857 C143.267104,27.3352312 142.828607,27.4263037 142.153996,27.5140031 C141.479385,27.6017025 140.939697,27.6590444 140.53493,27.6860289 L140.53493,27.6860289 L140.53493,29.12295 L164.375677,29.12295 Z" id="UMPIRE" fill="#047892"></path>
                    <path d="M195.461745,29.12295 L195.461745,27.6860289 C195.029994,27.6725367 194.426217,27.5848372 193.650415,27.4229306 C192.874612,27.261024 192.365281,27.132848 192.122421,27.0384025 C191.650193,26.8360192 191.319634,26.5493096 191.130743,26.1782736 C190.941852,25.8072377 190.847407,25.3990981 190.847407,24.953855 L190.847407,24.953855 L190.847407,1.98335587 L192.021229,1.98335587 C192.560918,1.98335587 193.14783,1.99684809 193.781964,2.02383252 C194.416098,2.05081695 194.942294,2.0912936 195.360553,2.14526247 C195.805796,2.21272355 196.267905,2.47919484 196.746878,2.94467632 C197.225852,3.4101578 197.667722,3.95321952 198.072489,4.57386149 C198.463763,5.16751903 198.817934,5.79828017 199.135001,6.4661449 C199.452068,7.13400963 199.671316,7.7108019 199.792746,8.1965217 L199.792746,8.1965217 L201.189191,8.1965217 L201.189191,0.404766504 L176.174621,0.404766504 L176.174621,8.1965217 L177.591304,8.1965217 C177.712734,7.75127855 177.928609,7.1879785 178.23893,6.50662155 C178.549251,5.8252646 178.906795,5.18101125 179.311561,4.57386149 C179.716328,3.96671174 180.158198,3.42365001 180.637172,2.94467632 C181.116145,2.46570262 181.578254,2.19923134 182.023497,2.14526247 C182.59017,2.07780139 183.183827,2.03395168 183.804469,2.01371336 C184.425111,1.99347503 184.944562,1.98335587 185.36282,1.98335587 L185.36282,1.98335587 L186.536643,1.98335587 L186.536643,25.1359999 C186.536643,25.6891808 186.432079,26.1310509 186.222949,26.4616102 C186.01382,26.7921695 185.686634,27.0451486 185.241391,27.2205474 C184.944562,27.3419773 184.408246,27.443169 183.632444,27.5241223 C182.856641,27.6050756 182.279849,27.6590444 181.902067,27.6860289 L181.902067,27.6860289 L181.902067,29.12295 L195.461745,29.12295 Z M211.490498,29.12295 L211.490498,27.6860289 C210.424613,27.63206 209.466666,27.4566612 208.616656,27.1598324 C207.766646,26.8630036 207.341642,26.4447449 207.341642,25.9050563 C207.341642,25.6756886 207.375372,25.3788598 207.442833,25.0145699 C207.510294,24.6502801 207.631724,24.1780525 207.807123,23.5978872 C207.996014,23.0042296 208.208517,22.3566032 208.44463,21.655008 C208.680744,20.9534127 208.987692,20.1303875 209.365474,19.1859323 L209.365474,19.1859323 L219.423922,19.1859323 L221.812044,25.6217197 C221.866013,25.7566419 221.90649,25.9118024 221.933474,26.0872012 C221.960459,26.2626 221.973951,26.4110144 221.973951,26.5324443 C221.973951,26.8292731 221.626526,27.0788791 220.931677,27.2812624 C220.236828,27.4836456 219.363207,27.6185678 218.310814,27.6860289 L218.310814,27.6860289 L218.310814,29.12295 L230.271664,29.12295 L230.271664,27.6860289 C229.934359,27.6725367 229.5161,27.6017025 229.016888,27.4735265 C228.517676,27.3453504 228.112909,27.1868168 227.802588,26.9979258 C227.343853,26.6876048 226.986309,26.3705377 226.729957,26.0467245 C226.473605,25.7229113 226.244237,25.2979065 226.041854,24.77171 L226.041854,24.77171 L216.469126,1.49213975e-13 L214.85006,1.49213975e-13 C213.487346,3.50797637 211.935741,7.50841865 210.195245,12.0013268 C208.45475,16.494235 206.862668,20.5419001 205.419001,24.144322 C205.135664,24.8459172 204.845582,25.3957251 204.548753,25.7937455 C204.251924,26.1917659 203.833665,26.572921 203.293977,26.9372108 C202.956671,27.1530863 202.52492,27.3251121 201.998724,27.4532881 C201.472527,27.5814642 201.03403,27.6590444 200.683233,27.6860289 L200.683233,27.6860289 L200.683233,29.12295 L211.490498,29.12295 Z M218.695342,17.3847213 L210.073816,17.3847213 L214.344102,6.25364249 L218.695342,17.3847213 Z M240.309873,29.12295 L240.309873,27.6860289 C238.906683,27.63206 237.999331,27.5005109 237.587819,27.2913815 C237.176306,27.0822522 236.97055,26.7550659 236.97055,26.3098228 C236.97055,25.9185485 237.726114,24.6199226 239.237242,22.4139452 C240.74837,20.2079677 242.097592,18.3224304 243.284907,16.7573333 C244.013487,17.8232184 244.748813,18.9396993 245.490885,20.1067761 C246.232957,21.2738528 246.873837,22.2891421 247.413526,23.152644 C247.899245,23.9351926 248.297266,24.643534 248.607587,25.2776682 C248.917908,25.9118024 249.073068,26.3300611 249.073068,26.5324443 C249.073068,26.9102264 248.73239,27.1901899 248.051033,27.3723348 C247.369676,27.5544798 246.475816,27.6590444 245.369455,27.6860289 L245.369455,27.6860289 L245.369455,29.12295 L258.807703,29.12295 L258.807703,27.6860289 C258.429921,27.6725367 257.967812,27.6421792 257.421377,27.5949564 C256.874943,27.5477336 256.439819,27.4296767 256.116005,27.2407857 C255.7787,27.0384025 255.340203,26.6639934 254.800514,26.1175587 C254.260826,25.5711239 253.781852,24.9943316 253.363593,24.3871819 C252.149294,22.6062092 250.877652,20.7375372 249.548669,18.7811658 C248.219685,16.8247943 247.015505,15.0775523 245.936128,13.5394396 C247.217888,11.7854514 248.314131,10.2979345 249.224856,9.07688885 C250.13558,7.85584323 251.130631,6.55047125 252.210009,5.16077292 C252.790174,4.418701 253.252282,3.8520279 253.596334,3.46075361 C253.940385,3.06947932 254.463209,2.70518947 255.164804,2.36788405 C255.529094,2.20597745 255.984456,2.08117444 256.530891,1.99347503 C257.077326,1.90577562 257.519196,1.85517981 257.856501,1.84168759 L257.856501,1.84168759 L257.856501,0.404766504 L247.150427,0.404766504 L247.150427,1.84168759 C248.351235,1.89565646 249.204617,2.02383252 249.710575,2.22621577 C250.216534,2.42859902 250.469513,2.74566612 250.469513,3.17741706 C250.469513,3.67662908 249.916332,4.75600642 248.80997,6.41554909 C247.703608,8.07509175 246.388117,9.93701767 244.863497,12.0013268 C244.026979,10.8005195 243.318638,9.74138053 242.738472,8.82390979 C242.158307,7.90643904 241.632111,7.0699216 241.159883,6.31435746 C240.701148,5.58577775 240.303127,4.90104775 239.965822,4.26016745 C239.628516,3.61928716 239.459864,3.17067095 239.459864,2.91431883 C239.459864,2.56352119 239.881495,2.30379602 240.724759,2.13514331 C241.568023,1.9664906 242.380929,1.86867203 243.163477,1.84168759 L243.163477,1.84168759 L243.163477,0.404766504 L229.866898,0.404766504 L229.866898,1.84168759 C230.204203,1.86867203 230.659565,1.92601395 231.232985,2.01371336 C231.806404,2.10141277 232.25502,2.21946966 232.578833,2.36788405 C233.132014,2.62423617 233.573884,2.92781104 233.904443,3.27860868 C234.235003,3.62940632 234.690365,4.22980997 235.27053,5.07981962 C236.646737,7.09015993 237.941989,8.97569722 239.156289,10.7364315 C240.370588,12.4971658 241.369012,13.9509522 242.151561,15.0977906 C241.11266,16.55495 239.918599,18.170643 238.569377,19.9448695 C237.220156,21.719096 236.113794,23.1998668 235.250292,24.3871819 C234.818541,24.9808394 234.390163,25.4969167 233.965158,25.9354137 C233.540154,26.3739108 232.976854,26.7820503 232.275258,27.1598324 C231.924461,27.3352312 231.475844,27.4600342 230.92941,27.5342414 C230.382975,27.6084486 229.934359,27.6590444 229.583561,27.6860289 L229.583561,27.6860289 L229.583561,29.12295 L240.309873,29.12295 Z" id="TAX" fill="#07D0BD"></path>
                </g>
                <path d="M131.042649,57.4648719 C131.720071,57.4648719 132.323593,57.3848129 132.853215,57.2246948 C133.555271,57.0029929 134.164951,56.5749851 134.682255,55.9406713 C135.19956,55.3063575 135.458212,54.6258558 135.458212,53.8991662 C135.458212,53.2094269 135.211876,52.5935883 134.719206,52.0516503 C134.362019,51.6698304 133.875507,51.361911 133.259668,51.1278924 L133.259668,51.1278924 L130.820947,50.5736376 C129.601587,50.278035 128.991906,49.9208486 128.991906,49.5020784 C128.991906,48.8985565 129.761705,48.5967956 131.301301,48.5967956 C132.163475,48.5967956 132.816264,48.7076465 133.259668,48.9293484 C133.432103,49.0032491 133.598379,49.0401994 133.758497,49.0401994 C134.041783,49.0401994 134.278881,48.9293484 134.469791,48.7076465 C134.660701,48.4859446 134.756156,48.2396092 134.756156,47.9686402 C134.756156,47.5621867 134.559088,47.2604257 134.164951,47.0633574 C133.425944,46.706171 132.483711,46.5275778 131.338251,46.5275778 C130.192792,46.5275778 129.219767,46.7308045 128.419176,47.137258 C127.421518,47.6668792 126.922688,48.4551527 126.922688,49.5020784 C126.922688,51.2264265 128.246742,52.2733522 130.894848,52.6428554 C131.95409,52.7906567 132.662305,53.0801008 133.019491,53.5111879 C133.179609,53.6836227 133.259668,53.8745327 133.259668,54.0839178 C133.259668,54.3179365 133.164213,54.5457968 132.973303,54.7674987 C132.782393,54.9892006 132.551454,55.1431602 132.280485,55.2293777 C131.947932,55.3402286 131.53532,55.3956541 131.042649,55.3956541 C130.168158,55.3956541 129.318301,55.2293777 128.493077,54.8968248 C128.345276,54.8475577 128.203633,54.8229242 128.068148,54.8229242 C127.784863,54.8229242 127.547765,54.9306959 127.356855,55.1462394 C127.165945,55.361783 127.07049,55.6111976 127.07049,55.8944834 C127.07049,56.3378872 127.286033,56.6458065 127.71712,56.8182413 C128.800996,57.2493284 129.909506,57.4648719 131.042649,57.4648719 Z M161.969555,57.4648719 C163.632319,57.4648719 164.931739,56.972201 165.867814,55.9868592 C166.803888,55.0015174 167.271926,53.6651475 167.271926,51.9777497 C167.271926,50.3149854 166.800809,48.9847739 165.858576,47.9871153 C164.916343,46.9894567 163.620003,46.4906275 161.969555,46.4906275 C160.306791,46.4906275 159.007371,46.9863776 158.071297,47.9778778 C157.135222,48.969378 156.667184,50.3026686 156.667184,51.9777497 C156.667184,53.6281972 157.14138,54.9553295 158.089772,55.9591464 C159.038163,56.9629634 160.331424,57.4648719 161.969555,57.4648719 Z M161.969555,55.3956541 C160.910313,55.3956541 160.106643,55.0969724 159.558547,54.4996089 C159.01045,53.9022454 158.736402,53.0616257 158.736402,51.9777497 C158.736402,49.6991467 159.81412,48.5598453 161.969555,48.5598453 C164.12499,48.5598453 165.202708,49.6991467 165.202708,51.9777497 C165.202708,54.2563526 164.12499,55.3956541 161.969555,55.3956541 Z M195.889437,57.3540209 C196.209673,57.3540209 196.462167,57.2524076 196.646919,57.0491808 C196.83167,56.8459541 196.924046,56.6026978 196.924046,56.319412 C196.924046,56.048443 196.83167,55.808266 196.646919,55.5988808 C196.462167,55.3894957 196.209673,55.2848031 195.889437,55.2848031 L195.889437,55.2848031 L191.141321,55.2848031 L191.141321,47.6360873 C191.141321,47.3158512 191.039708,47.0633574 190.836481,46.8786058 C190.633254,46.6938542 190.389998,46.6014784 190.106712,46.6014784 C189.823426,46.6014784 189.58017,46.6938542 189.376943,46.8786058 C189.173717,47.0633574 189.072103,47.3158512 189.072103,47.6360873 L189.072103,47.6360873 L189.072103,57.3540209 L195.889437,57.3540209 Z M222.862659,57.3909713 C224.291405,57.3909713 225.427627,57.0091513 226.271326,56.2455114 C227.115025,55.4818715 227.536874,54.3979955 227.536874,52.9938834 L227.536874,52.9938834 L227.536874,47.6360873 C227.536874,47.3158512 227.435261,47.0633574 227.232034,46.8786058 C227.028807,46.6938542 226.785551,46.6014784 226.502265,46.6014784 C226.21898,46.6014784 225.984961,46.6876958 225.800209,46.8601306 C225.578507,47.057199 225.467657,47.3158512 225.467657,47.6360873 L225.467657,47.6360873 L225.467657,52.9938834 C225.467657,54.5457968 224.599324,55.3217535 222.862659,55.3217535 C221.125994,55.3217535 220.257662,54.5457968 220.257662,52.9938834 L220.257662,52.9938834 L220.257662,47.6360873 C220.257662,47.3158512 220.156048,47.0633574 219.952822,46.8786058 C219.749595,46.6938542 219.506339,46.6014784 219.223053,46.6014784 C218.952084,46.6014784 218.714986,46.6938542 218.511759,46.8786058 C218.308532,47.0633574 218.206919,47.3158512 218.206919,47.6360873 L218.206919,47.6360873 L218.206919,52.9938834 C218.206919,54.3979955 218.625689,55.4818715 219.46323,56.2455114 C220.30077,57.0091513 221.433913,57.3909713 222.862659,57.3909713 Z M254.103643,57.3540209 C254.386929,57.3540209 254.630185,57.2647243 254.833412,57.0861311 C255.036639,56.9075379 255.138252,56.6519649 255.138252,56.319412 L255.138252,56.319412 L255.138252,48.6706962 L257.558498,48.6706962 C257.878734,48.6706962 258.131228,48.5690828 258.315979,48.3658561 C258.500731,48.1626293 258.593107,47.9193731 258.593107,47.6360873 C258.593107,47.3528015 258.500731,47.1095453 258.315979,46.9063185 C258.131228,46.7030918 257.878734,46.6014784 257.558498,46.6014784 L257.558498,46.6014784 L250.371661,46.6014784 C250.039108,46.6014784 249.783535,46.7030918 249.604942,46.9063185 C249.426349,47.1095453 249.337052,47.3528015 249.337052,47.6360873 C249.337052,47.9193731 249.426349,48.1626293 249.604942,48.3658561 C249.783535,48.5690828 250.039108,48.6706962 250.371661,48.6706962 L250.371661,48.6706962 L253.069034,48.6706962 L253.069034,56.319412 C253.069034,56.6519649 253.173727,56.9075379 253.383112,57.0861311 C253.592497,57.2647243 253.832674,57.3540209 254.103643,57.3540209 Z M281.132291,57.3540209 C281.40326,57.3540209 281.643437,57.2647243 281.852822,57.0861311 C282.062207,56.9075379 282.166899,56.6519649 282.166899,56.319412 L282.166899,56.319412 L282.166899,47.6360873 C282.166899,47.3158512 282.062207,47.0633574 281.852822,46.8786058 C281.643437,46.6938542 281.40326,46.6014784 281.132291,46.6014784 C280.849005,46.6014784 280.605749,46.6938542 280.402522,46.8786058 C280.199295,47.0633574 280.097682,47.3158512 280.097682,47.6360873 L280.097682,47.6360873 L280.097682,56.319412 C280.097682,56.6519649 280.199295,56.9075379 280.402522,57.0861311 C280.605749,57.2647243 280.849005,57.3540209 281.132291,57.3540209 Z M309.158597,57.4648719 C310.821361,57.4648719 312.120781,56.972201 313.056855,55.9868592 C313.99293,55.0015174 314.460967,53.6651475 314.460967,51.9777497 C314.460967,50.3149854 313.989851,48.9847739 313.047618,47.9871153 C312.105385,46.9894567 310.809044,46.4906275 309.158597,46.4906275 C307.495832,46.4906275 306.196413,46.9863776 305.260338,47.9778778 C304.324264,48.969378 303.856226,50.3026686 303.856226,51.9777497 C303.856226,53.6281972 304.330422,54.9553295 305.278813,55.9591464 C306.227205,56.9629634 307.520466,57.4648719 309.158597,57.4648719 Z M309.158597,55.3956541 C308.099354,55.3956541 307.295685,55.0969724 306.747589,54.4996089 C306.199492,53.9022454 305.925444,53.0616257 305.925444,51.9777497 C305.925444,49.6991467 307.003162,48.5598453 309.158597,48.5598453 C311.314032,48.5598453 312.39175,49.6991467 312.39175,51.9777497 C312.39175,54.2563526 311.314032,55.3956541 309.158597,55.3956541 Z M337.369655,57.3540209 C337.640624,57.3540209 337.880801,57.2647243 338.090186,57.0861311 C338.299571,56.9075379 338.404263,56.6519649 338.404263,56.319412 L338.404263,56.319412 L338.404263,50.9616159 L345.886703,57.3170706 L345.886703,47.6360873 C345.886703,47.3158512 345.785089,47.0633574 345.581863,46.8786058 C345.378636,46.6938542 345.13538,46.6014784 344.852094,46.6014784 C344.568808,46.6014784 344.325552,46.6938542 344.122325,46.8786058 C343.919098,47.0633574 343.817485,47.3158512 343.817485,47.6360873 L343.817485,47.6360873 L343.817485,52.3103025 L336.335046,46.6014784 L336.335046,56.319412 C336.335046,56.6519649 336.436659,56.9075379 336.639886,57.0861311 C336.843113,57.2647243 337.086369,57.3540209 337.369655,57.3540209 Z M371.936167,57.4648719 C372.61359,57.4648719 373.217111,57.3848129 373.746733,57.2246948 C374.448789,57.0029929 375.058469,56.5749851 375.575773,55.9406713 C376.093078,55.3063575 376.35173,54.6258558 376.35173,53.8991662 C376.35173,53.2094269 376.105395,52.5935883 375.612724,52.0516503 C375.255537,51.6698304 374.769025,51.361911 374.153186,51.1278924 C373.340279,50.9431408 372.527372,50.7583892 371.714465,50.5736376 C370.495105,50.278035 369.885424,49.9208486 369.885424,49.5020784 C369.885424,48.8985565 370.655223,48.5967956 372.194819,48.5967956 C373.056993,48.5967956 373.709782,48.7076465 374.153186,48.9293484 C374.325621,49.0032491 374.491897,49.0401994 374.652015,49.0401994 C374.935301,49.0401994 375.172399,48.9293484 375.363309,48.7076465 C375.554219,48.4859446 375.649674,48.2396092 375.649674,47.9686402 C375.649674,47.5621867 375.452606,47.2604257 375.058469,47.0633574 C374.319463,46.706171 373.377229,46.5275778 372.23177,46.5275778 C371.08631,46.5275778 370.113285,46.7308045 369.312694,47.137258 C368.315036,47.6668792 367.816207,48.4551527 367.816207,49.5020784 C367.816207,51.2264265 369.14026,52.2733522 371.788366,52.6428554 C372.847608,52.7906567 373.555823,53.0801008 373.913009,53.5111879 C374.073127,53.6836227 374.153186,53.8745327 374.153186,54.0839178 C374.153186,54.3179365 374.057731,54.5457968 373.866821,54.7674987 C373.675911,54.9892006 373.444972,55.1431602 373.174003,55.2293777 C372.84145,55.3402286 372.428838,55.3956541 371.936167,55.3956541 C371.061676,55.3956541 370.211819,55.2293777 369.386595,54.8968248 C369.238794,54.8475577 369.097151,54.8229242 368.961666,54.8229242 C368.678381,54.8229242 368.441283,54.9306959 368.250373,55.1462394 C368.059463,55.361783 367.964008,55.6111976 367.964008,55.8944834 C367.964008,56.3378872 368.179551,56.6458065 368.610638,56.8182413 C369.694514,57.2493284 370.803024,57.4648719 371.936167,57.4648719 Z" id="SOLUTIONS" fill="#777777" fill-rule="nonzero"></path>
                <path d="M55.2873515,59.6478763 C58.7066596,59.6478763 61.8162477,59.1265448 64.6161159,58.0838818 C67.4159841,57.0412188 69.807022,55.5889382 71.7892296,53.72704 C73.7714372,51.8651418 75.2952593,49.6308639 76.3606958,47.0242064 C77.4261324,44.4175489 77.9588507,41.5254004 77.9588507,38.3477608 L77.9588507,20.0958763 L65.2479446,13.1838763 L65.2479446,37.3050978 C65.2479446,38.7449657 65.0745014,40.1103578 64.7276151,41.4012738 C64.3807288,42.6921899 63.8108441,43.8465668 63.0179611,44.8644045 C62.225078,45.8822422 61.1968079,46.6890648 59.9331505,47.2848722 C58.6694932,47.8806796 57.1456711,48.1785833 55.3616843,48.1785833 C53.5776975,48.1785833 52.0538754,47.8806796 50.7902181,47.2848722 C49.5265607,46.6890648 48.5106794,45.8822422 47.7425739,44.8644045 C46.9744685,43.8465668 46.4045838,42.6921899 46.0329199,41.4012738 C45.661256,40.1103578 45.475424,38.7449657 45.475424,37.3050978 L45.475424,17.2158763 L32.8388507,12.0318763 L32.8388507,38.3477608 C32.8388507,41.5254004 33.3591802,44.4175489 34.3998392,47.0242064 C35.4404981,49.6308639 36.9271538,51.8651418 38.8598062,53.72704 C40.7924586,55.5889382 43.1463301,57.0412188 45.9214207,58.0838818 C48.6965113,59.1265448 51.8184883,59.6478763 55.2873515,59.6478763 Z" id="U" fill="#047892" fill-rule="nonzero"></path>
                <path d="M28.1048087,41.1876643 C15.5844337,27.6637893 13.0436837,17.8432268 20.4825587,11.7259768 C26.4114337,6.71222682 38.2162462,7.34922682 55.8969962,13.6369768 C46.2801212,7.88172682 34.9756212,5.47303932 21.9834962,6.41091432 C13.7086926,7.588466 10.1184962,13.2550393 11.1122462,20.0101018 C12.8432105,26.6112268 18.507398,33.6704143 28.1048087,41.1876643 Z" id="Path-16" fill="#07D0BD"></path>
                <path d="M77.4555587,58.9199143 C89.4380587,58.0424143 94.3591837,52.9195393 92.2189337,43.5512893 C91.3146837,38.4564143 87.6923087,33.0159143 81.3518087,27.2297893 C88.8996837,32.1757893 94.0189337,37.8215393 96.7095587,44.1670393 C98.0083163,48.4911643 98.0083163,54.0102268 92.2189337,57.6036643 C88.2733087,59.5555393 83.3521837,59.9942893 77.4555587,58.9199143 Z" id="Path-17" fill="#07D0BD"></path>
                <path d="M19.5675587,36.5920393 C6.4783087,23.8317893 3.2506837,13.9157893 9.8846837,6.84403932 C12.5229962,3.67716432 20.5639337,1.44385182 34.4498087,3.67716432 C48.3356837,5.91047682 70.1505587,14.9432893 83.5924337,25.5212893 C97.0343087,36.0992893 100.749809,45.5852893 99.7185587,52.6176643 C98.5058087,58.3081643 92.6068087,61.4196643 82.0215587,61.9521643 C91.9161837,63.1726355 98.5754337,62.3525971 101.999309,59.492049 C107.135121,55.2012268 107.703809,48.6347893 104.608559,43.3609191 C87.7688087,18.2371018 48.6540587,5.51035182 39.3293087,2.78691432 C23.2571837,-1.16296068 4.5728087,-2.06933568 0.908683696,7.88728932 C-1.0696913,15.9309143 5.1499337,25.4991643 19.5675587,36.5920393 Z" id="Path-18" fill="#047892"></path>
            </g>
        </g>
    </g>
</svg>